# xmcd
#
# Track frame offsets:
#	150
#	9725
#	24108
#	45795
#
# Disc length: 814 seconds
#
# Revision: 2
# Processed by: cddbd v1.5.1PL0 Copyright (c) Steve Scherf et al.
# Submitted via: EasyCDDAExtractor 5.0.6
#
DISCID=1b032c04
DTITLE=Bright Eyes and Britt Daniel - Home Volume IV
DYEAR=2002
DGENRE=Indie Rock
TTITLE0=Spent On Rainy Days
TTITLE1=You Get Yours
TTITLE2=Southern State
TTITLE3=Let The Distance Bring Us Together
EXTD=Post-Parlo Records HOME series Volume 4 YEAR: 2002
EXTT0=
EXTT1=
EXTT2=
EXTT3=
PLAYORDER=
